<svg xmlns="http://www.w3.org/2000/svg" width="175.193" height="20.71"><path d="M18.694 20.438h-6.132c-1.4-2.834-3.897-6.432-6.486-9.62.736.218 1.417.273 2.153.273 1.852 0 2.86-1.28 2.86-3.217S9.973 4.686 8.23 4.686h-2.9v15.75H0V.272h8.774c4.688 0 7.85 2.807 7.85 7.03 0 2.562-1.118 4.47-2.726 5.642 1.363 1.88 3.298 4.714 4.797 7.494zM27.166 13l-.845-.22c-3.978-1.035-6.404-2.07-6.404-6.186 0-4.223 3-6.594 8.013-6.594 2.288 0 4.796.5 6.513 1.227v4.005c-2.098-.68-4.06-.953-5.287-.953-2.725 0-3.842.518-3.842 1.4 0 1.036 1.472 1.335 3.434 1.826l.762.2c3.543.872 6.24 2.534 6.24 6.513 0 4.06-2.942 6.513-7.85 6.513-2.234 0-5.204-.5-7.112-1.47v-4.006c2.044.872 4.36 1.2 5.724 1.2 2.807 0 3.87-.572 3.87-1.527-.001-1.063-1.473-1.47-3.217-1.907zm23.95 4.877h-8.23l-1.172 2.562H36.02C39.4 13.625 43.35 5.995 46.866 0h.273c3.488 5.995 7.466 13.625 10.846 20.438H52.3l-1.172-2.56zm-4.115-8.912l-2.315 4.524h4.632c-.736-1.5-1.553-3.025-2.317-4.524z" fill="#233269"/><path d="M80.567 19.912c-1.55.5-3.32.8-4.8.8-6.313 0-9.878-4.326-9.878-10.26C65.9 4.128 69.954.02 75.777.02c1.933 0 4.4.462 6.232 1.143v1.932c-1.58-.625-3.974-1.033-5.524-1.033-4.898 0-8.028 3.292-8.028 8.382 0 4.844 2.75 8.218 7.864 8.218 1.143 0 2.776-.244 4.2-.652v-6.723h-5.36V9.244h7.838v11.32c-1.033 0-1.822-.27-2.42-.653zm18.973.518H87.7V.3h2.477v18.1h9.36v2.04zm.844-10.07c0-6.205 4.082-10.34 10.18-10.34s10.178 4.136 10.178 10.34-4.084 10.34-10.178 10.34-10.18-4.136-10.18-10.34zm17.8 0c0-4.98-3.048-8.3-7.593-8.3-4.6 0-7.647 3.32-7.647 8.3s3.05 8.3 7.647 8.3c4.545 0 7.593-3.32 7.593-8.3zm21.216 4.38c0 3.43-2.557 5.688-6.422 5.688h-8.328V.3h7.947c3.484 0 5.824 2.068 5.824 5.198 0 2.014-1.115 3.538-3.02 4.38 2.45.653 4 2.422 4 4.87zm-7.565-5.578c2.422 0 4.055-1.36 4.055-3.43 0-2.04-1.66-3.4-4.137-3.4h-4.627v6.83h4.7zm5.008 5.552c0-2.23-1.715-3.7-4.273-3.7h-5.443v7.375h5.443c2.558 0 4.273-1.47 4.273-3.674zm18.97.87h-10.45l-1.934 4.845h-2.64A228.55 228.55 0 0 1 150.48.02h.244c3.213 5.986 6.887 13.606 9.7 20.4h-2.64a111.85 111.85 0 0 0-1.958-4.845zM150.6 4.183a220.53 220.53 0 0 0-4.354 9.361h8.707c-1.388-3.238-2.9-6.45-4.353-9.36zm24.603 16.247h-11.838V.3h2.477v18.1h9.36v2.04z" fill="#da1a32"/></svg>